<svg id="Layer_1" data-name="Layer 1" xmlns="http://www.w3.org/2000/svg" viewBox="0 0 502.57 208.31"><defs><style>.cls-1{fill:#3498db;}.cls-2{fill:#2980b9;}</style></defs><title>WINDWRK_Icon</title><polygon class="cls-1" points="56.69 0 52.35 0 0 0 48.42 208.31 100.77 208.31 105.1 208.31 95.39 166.53 56.69 0"/><polygon class="cls-2" points="446.25 0 470.46 104.15 474.41 121.16 478.36 104.15 502.57 0 446.25 0"/><polygon class="cls-1" points="169.33 0 165 0 112.65 0 161.07 208.31 213.41 208.31 217.75 208.31 208.03 166.53 169.33 0"/><polygon class="cls-1" points="281.98 0 277.65 0 225.29 0 273.71 208.31 326.06 208.31 330.39 208.31 320.68 166.53 281.98 0"/><polygon class="cls-1" points="394.63 0 390.29 0 337.94 0 386.36 208.31 438.7 208.31 443.04 208.31 433.32 166.53 394.63 0"/></svg>